<mxfile host="Electron" modified="2024-11-28T22:30:35.684Z" agent="Mozilla/5.0 (X11; Linux x86_64) AppleWebKit/537.36 (KHTML, like Gecko) draw.io/24.4.0 Chrome/126.0.6478.234 Electron/31.4.0 Safari/537.36" etag="fN3I0KXG7jYoILM9chfx" version="24.3.1" type="device">
  <diagram name="Page-1" id="3oWv2FSiUH2K9-LTosob">
    <mxGraphModel dx="1837" dy="1681" grid="1" gridSize="10" guides="1" tooltips="1" connect="1" arrows="1" fold="1" page="1" pageScale="1" pageWidth="850" pageHeight="1100" math="0" shadow="0">
      <root>
        <mxCell id="0" />
        <mxCell id="1" parent="0" />
        <mxCell id="mgEL9NK0OKwt6BpyhefV-6" value="APath" style="shape=umlFrame;whiteSpace=wrap;html=1;pointerEvents=0;recursiveResize=0;container=1;collapsible=0;width=160;" vertex="1" parent="1">
          <mxGeometry x="820" y="50" width="340" height="191" as="geometry" />
        </mxCell>
        <mxCell id="mgEL9NK0OKwt6BpyhefV-8" value="a list of nested sets" style="html=1;strokeColor=none;fillColor=none;align=left;verticalAlign=middle;spacingLeft=4;spacingRight=4;rotatable=0;points=[[0,0.5],[1,0.5]];resizeWidth=1;whiteSpace=wrap;" vertex="1" parent="mgEL9NK0OKwt6BpyhefV-6">
          <mxGeometry x="180" y="10" width="140" height="30" as="geometry" />
        </mxCell>
        <mxCell id="mgEL9NK0OKwt6BpyhefV-16" value="last" style="swimlane;fontStyle=0;childLayout=stackLayout;horizontal=1;startSize=26;fillColor=none;horizontalStack=0;resizeParent=1;resizeParentMax=0;resizeLast=0;collapsible=1;marginBottom=0;whiteSpace=wrap;html=1;" vertex="1" parent="mgEL9NK0OKwt6BpyhefV-6">
          <mxGeometry x="25" y="60" width="140" height="52" as="geometry" />
        </mxCell>
        <mxCell id="mgEL9NK0OKwt6BpyhefV-18" value="&lt;span style=&quot;text-align: center;&quot;&gt;innermost set&lt;/span&gt;" style="text;strokeColor=none;fillColor=none;align=left;verticalAlign=top;spacingLeft=4;spacingRight=4;overflow=hidden;rotatable=0;points=[[0,0.5],[1,0.5]];portConstraint=eastwest;whiteSpace=wrap;html=1;" vertex="1" parent="mgEL9NK0OKwt6BpyhefV-16">
          <mxGeometry y="26" width="140" height="26" as="geometry" />
        </mxCell>
        <mxCell id="mgEL9NK0OKwt6BpyhefV-20" value="fun" style="shape=umlFrame;whiteSpace=wrap;html=1;pointerEvents=0;recursiveResize=0;container=1;collapsible=0;width=160;height=30;autosize=0;resizable=1;treeFolding=0;comic=0;" vertex="1" parent="1">
          <mxGeometry x="10" y="70" width="560" height="551" as="geometry" />
        </mxCell>
        <mxCell id="mgEL9NK0OKwt6BpyhefV-21" value="a list of nested sets" style="html=1;strokeColor=none;fillColor=none;align=left;verticalAlign=middle;spacingLeft=4;spacingRight=4;rotatable=0;points=[[0,0.5],[1,0.5]];resizeWidth=1;whiteSpace=wrap;" vertex="1" parent="mgEL9NK0OKwt6BpyhefV-20">
          <mxGeometry x="180" y="10" width="140" height="30" as="geometry" />
        </mxCell>
        <mxCell id="mgEL9NK0OKwt6BpyhefV-24" value="last" style="swimlane;fontStyle=0;childLayout=stackLayout;horizontal=1;startSize=26;fillColor=none;horizontalStack=0;resizeParent=1;resizeParentMax=0;resizeLast=0;collapsible=1;marginBottom=0;whiteSpace=wrap;html=1;" vertex="1" parent="mgEL9NK0OKwt6BpyhefV-20">
          <mxGeometry x="180" y="60" width="140" height="52" as="geometry" />
        </mxCell>
        <mxCell id="mgEL9NK0OKwt6BpyhefV-25" value="&lt;span style=&quot;text-align: center;&quot;&gt;innermost set&lt;/span&gt;" style="text;strokeColor=none;fillColor=none;align=left;verticalAlign=top;spacingLeft=4;spacingRight=4;overflow=hidden;rotatable=0;points=[[0,0.5],[1,0.5]];portConstraint=eastwest;whiteSpace=wrap;html=1;" vertex="1" parent="mgEL9NK0OKwt6BpyhefV-24">
          <mxGeometry y="26" width="140" height="26" as="geometry" />
        </mxCell>
        <mxCell id="mgEL9NK0OKwt6BpyhefV-26" value="importer" style="shape=umlFrame;whiteSpace=wrap;html=1;pointerEvents=0;recursiveResize=0;container=1;collapsible=0;width=160;height=30;noLabel=0;portConstraintRotation=0;connectable=1;part=0;" vertex="1" parent="mgEL9NK0OKwt6BpyhefV-20">
          <mxGeometry x="10" y="130" width="350" height="211" as="geometry" />
        </mxCell>
        <mxCell id="mgEL9NK0OKwt6BpyhefV-27" value="a list of nested sets" style="html=1;strokeColor=none;fillColor=none;align=left;verticalAlign=middle;spacingLeft=4;spacingRight=4;rotatable=0;points=[[0,0.5],[1,0.5]];resizeWidth=1;whiteSpace=wrap;" vertex="1" parent="mgEL9NK0OKwt6BpyhefV-26">
          <mxGeometry x="180" y="10" width="140" height="30" as="geometry" />
        </mxCell>
        <mxCell id="mgEL9NK0OKwt6BpyhefV-28" value="last" style="swimlane;fontStyle=0;childLayout=stackLayout;horizontal=1;startSize=26;fillColor=none;horizontalStack=0;resizeParent=1;resizeParentMax=0;resizeLast=0;collapsible=1;marginBottom=0;whiteSpace=wrap;html=1;" vertex="1" parent="mgEL9NK0OKwt6BpyhefV-26">
          <mxGeometry x="20" y="70" width="140" height="52" as="geometry" />
        </mxCell>
        <mxCell id="mgEL9NK0OKwt6BpyhefV-29" value="&lt;span style=&quot;text-align: center;&quot;&gt;innermost set&lt;/span&gt;" style="text;strokeColor=none;fillColor=none;align=left;verticalAlign=top;spacingLeft=4;spacingRight=4;overflow=hidden;rotatable=0;points=[[0,0.5],[1,0.5]];portConstraint=eastwest;whiteSpace=wrap;html=1;" vertex="1" parent="mgEL9NK0OKwt6BpyhefV-28">
          <mxGeometry y="26" width="140" height="26" as="geometry" />
        </mxCell>
        <mxCell id="mgEL9NK0OKwt6BpyhefV-30" value="mkEnableFun" style="shape=umlFrame;whiteSpace=wrap;html=1;pointerEvents=0;recursiveResize=0;container=1;collapsible=0;width=160;" vertex="1" parent="mgEL9NK0OKwt6BpyhefV-20">
          <mxGeometry x="40" y="360" width="340" height="191" as="geometry" />
        </mxCell>
        <mxCell id="mgEL9NK0OKwt6BpyhefV-31" value="a list of nested sets" style="html=1;strokeColor=none;fillColor=none;align=left;verticalAlign=middle;spacingLeft=4;spacingRight=4;rotatable=0;points=[[0,0.5],[1,0.5]];resizeWidth=1;whiteSpace=wrap;" vertex="1" parent="mgEL9NK0OKwt6BpyhefV-30">
          <mxGeometry x="180" y="10" width="140" height="30" as="geometry" />
        </mxCell>
        <mxCell id="mgEL9NK0OKwt6BpyhefV-32" value="last" style="swimlane;fontStyle=0;childLayout=stackLayout;horizontal=1;startSize=26;fillColor=none;horizontalStack=0;resizeParent=1;resizeParentMax=0;resizeLast=0;collapsible=1;marginBottom=0;whiteSpace=wrap;html=1;" vertex="1" parent="mgEL9NK0OKwt6BpyhefV-30">
          <mxGeometry x="25" y="60" width="140" height="52" as="geometry" />
        </mxCell>
        <mxCell id="mgEL9NK0OKwt6BpyhefV-33" value="&lt;span style=&quot;text-align: center;&quot;&gt;innermost set&lt;/span&gt;" style="text;strokeColor=none;fillColor=none;align=left;verticalAlign=top;spacingLeft=4;spacingRight=4;overflow=hidden;rotatable=0;points=[[0,0.5],[1,0.5]];portConstraint=eastwest;whiteSpace=wrap;html=1;" vertex="1" parent="mgEL9NK0OKwt6BpyhefV-32">
          <mxGeometry y="26" width="140" height="26" as="geometry" />
        </mxCell>
        <mxCell id="mgEL9NK0OKwt6BpyhefV-38" value="Instance1" style="swimlane;fontStyle=4;align=center;verticalAlign=top;childLayout=stackLayout;horizontal=1;startSize=70;horizontalStack=0;resizeParent=1;resizeParentMax=0;resizeLast=0;collapsible=0;marginBottom=0;html=1;whiteSpace=wrap;" vertex="1" parent="1">
          <mxGeometry x="-140" y="-250" width="640" height="120" as="geometry" />
        </mxCell>
        <mxCell id="mgEL9NK0OKwt6BpyhefV-41" value="internal structure" style="html=1;strokeColor=none;fillColor=none;align=center;verticalAlign=middle;spacingLeft=4;spacingRight=4;rotatable=0;points=[[0,0.5],[1,0.5]];resizeWidth=1;whiteSpace=wrap;imageAspect=1;" vertex="1" parent="mgEL9NK0OKwt6BpyhefV-38">
          <mxGeometry y="70" width="640" height="20" as="geometry" />
        </mxCell>
        <mxCell id="mgEL9NK0OKwt6BpyhefV-39" value="slot1" style="html=1;strokeColor=none;fillColor=none;align=left;verticalAlign=middle;spacingLeft=4;spacingRight=4;rotatable=0;points=[[0,0.5],[1,0.5]];resizeWidth=1;whiteSpace=wrap;" vertex="1" parent="mgEL9NK0OKwt6BpyhefV-38">
          <mxGeometry y="90" width="640" height="30" as="geometry" />
        </mxCell>
        <mxCell id="mgEL9NK0OKwt6BpyhefV-44" value="Package" style="shape=folder;fontStyle=1;tabWidth=100;tabHeight=30;tabPosition=left;html=1;boundedLbl=1;labelInHeader=1;container=1;collapsible=0;whiteSpace=wrap;deletable=1;perimeter=rectanglePerimeter;" vertex="1" parent="1">
          <mxGeometry x="330" y="-90" width="150" height="100" as="geometry" />
        </mxCell>
        <mxCell id="mgEL9NK0OKwt6BpyhefV-45" value="Text" style="html=1;strokeColor=none;resizeWidth=1;resizeHeight=1;fillColor=none;part=1;connectable=0;allowArrows=0;deletable=0;whiteSpace=wrap;" vertex="1" parent="mgEL9NK0OKwt6BpyhefV-44">
          <mxGeometry width="150" height="70" relative="1" as="geometry">
            <mxPoint y="30" as="offset" />
          </mxGeometry>
        </mxCell>
      </root>
    </mxGraphModel>
  </diagram>
</mxfile>
